<mxfile host="app.diagrams.net" modified="2023-07-29T07:45:50.991Z" agent="Mozilla/5.0 (Windows NT 10.0; Win64; x64) AppleWebKit/537.36 (KHTML, like Gecko) Chrome/115.0.0.0 Safari/537.36 Edg/115.0.1901.188" etag="I6uuvZnZTP-tnj12gP94" version="21.6.5" type="github" pages="2">
  <diagram id="jJA4c6N558jFPi-clJbQ" name="第 1 页">
    <mxGraphModel dx="2019" dy="2285" grid="1" gridSize="10" guides="1" tooltips="1" connect="1" arrows="1" fold="1" page="1" pageScale="1" pageWidth="827" pageHeight="1169" math="0" shadow="0">
      <root>
        <mxCell id="0" />
        <mxCell id="1" parent="0" />
        <mxCell id="PIZUfgC84MCXlES0mt8J-1" value="123" style="rounded=1;whiteSpace=wrap;html=1;" parent="1" vertex="1">
          <mxGeometry x="350" y="260" width="100" height="50" as="geometry" />
        </mxCell>
        <mxCell id="Lf_Jcr54nS20VTpSo2-b-5" value="" style="edgeStyle=orthogonalEdgeStyle;rounded=0;orthogonalLoop=1;jettySize=auto;html=1;" edge="1" parent="1" source="Lf_Jcr54nS20VTpSo2-b-1" target="Lf_Jcr54nS20VTpSo2-b-4">
          <mxGeometry relative="1" as="geometry" />
        </mxCell>
        <mxCell id="Lf_Jcr54nS20VTpSo2-b-1" value="" style="rounded=0;whiteSpace=wrap;html=1;" vertex="1" parent="1">
          <mxGeometry x="340" y="70" width="120" height="60" as="geometry" />
        </mxCell>
        <mxCell id="Lf_Jcr54nS20VTpSo2-b-2" value="" style="endArrow=classic;html=1;rounded=0;exitX=1;exitY=1;exitDx=0;exitDy=0;" edge="1" parent="1" source="PIZUfgC84MCXlES0mt8J-1" target="Lf_Jcr54nS20VTpSo2-b-6">
          <mxGeometry relative="1" as="geometry">
            <mxPoint x="360" y="570" as="sourcePoint" />
            <mxPoint x="460" y="570" as="targetPoint" />
          </mxGeometry>
        </mxCell>
        <mxCell id="Lf_Jcr54nS20VTpSo2-b-3" value="Label" style="edgeLabel;resizable=0;html=1;align=center;verticalAlign=middle;" connectable="0" vertex="1" parent="Lf_Jcr54nS20VTpSo2-b-2">
          <mxGeometry relative="1" as="geometry">
            <mxPoint x="-140" y="-430" as="offset" />
          </mxGeometry>
        </mxCell>
        <mxCell id="Lf_Jcr54nS20VTpSo2-b-4" value="" style="shape=waypoint;sketch=0;size=6;pointerEvents=1;points=[];fillColor=default;resizable=0;rotatable=0;perimeter=centerPerimeter;snapToPoint=1;rounded=0;" vertex="1" parent="1">
          <mxGeometry x="390" y="250" width="20" height="20" as="geometry" />
        </mxCell>
        <mxCell id="Lf_Jcr54nS20VTpSo2-b-6" value="" style="shape=note;whiteSpace=wrap;html=1;backgroundOutline=1;darkOpacity=0.05;" vertex="1" parent="1">
          <mxGeometry x="580" y="270" width="366" height="60" as="geometry" />
        </mxCell>
        <mxCell id="Lf_Jcr54nS20VTpSo2-b-7" value="package" style="shape=folder;fontStyle=1;spacingTop=10;tabWidth=40;tabHeight=14;tabPosition=left;html=1;whiteSpace=wrap;" vertex="1" parent="1">
          <mxGeometry x="20" y="45" width="210" height="50" as="geometry" />
        </mxCell>
        <mxCell id="Lf_Jcr54nS20VTpSo2-b-9" value="package" style="shape=folder;fontStyle=1;spacingTop=10;tabWidth=40;tabHeight=14;tabPosition=left;html=1;whiteSpace=wrap;" vertex="1" parent="1">
          <mxGeometry x="20" y="115" width="210" height="50" as="geometry" />
        </mxCell>
        <mxCell id="Lf_Jcr54nS20VTpSo2-b-10" value="package" style="shape=folder;fontStyle=1;spacingTop=10;tabWidth=40;tabHeight=14;tabPosition=left;html=1;whiteSpace=wrap;" vertex="1" parent="1">
          <mxGeometry x="20" y="185" width="210" height="50" as="geometry" />
        </mxCell>
        <mxCell id="Lf_Jcr54nS20VTpSo2-b-11" value="package" style="shape=folder;fontStyle=1;spacingTop=10;tabWidth=40;tabHeight=14;tabPosition=left;html=1;whiteSpace=wrap;" vertex="1" parent="1">
          <mxGeometry x="20" y="255" width="210" height="50" as="geometry" />
        </mxCell>
        <mxCell id="Lf_Jcr54nS20VTpSo2-b-12" value="package" style="shape=folder;fontStyle=1;spacingTop=10;tabWidth=40;tabHeight=14;tabPosition=left;html=1;whiteSpace=wrap;" vertex="1" parent="1">
          <mxGeometry x="20" y="325" width="210" height="50" as="geometry" />
        </mxCell>
        <mxCell id="Lf_Jcr54nS20VTpSo2-b-13" value="package" style="shape=folder;fontStyle=1;spacingTop=10;tabWidth=40;tabHeight=14;tabPosition=left;html=1;whiteSpace=wrap;" vertex="1" parent="1">
          <mxGeometry x="20" y="395" width="210" height="50" as="geometry" />
        </mxCell>
        <mxCell id="Lf_Jcr54nS20VTpSo2-b-14" value="package" style="shape=folder;fontStyle=1;spacingTop=10;tabWidth=40;tabHeight=14;tabPosition=left;html=1;whiteSpace=wrap;" vertex="1" parent="1">
          <mxGeometry x="20" y="465" width="210" height="50" as="geometry" />
        </mxCell>
        <mxCell id="Lf_Jcr54nS20VTpSo2-b-15" value="package" style="shape=folder;fontStyle=1;spacingTop=10;tabWidth=40;tabHeight=14;tabPosition=left;html=1;whiteSpace=wrap;" vertex="1" parent="1">
          <mxGeometry x="20" y="535" width="210" height="50" as="geometry" />
        </mxCell>
      </root>
    </mxGraphModel>
  </diagram>
  <diagram id="dnSD3xkA-z91qA1d0o1D" name="第 2 页">
    <mxGraphModel dx="782" dy="428" grid="1" gridSize="10" guides="1" tooltips="1" connect="1" arrows="1" fold="1" page="1" pageScale="1" pageWidth="827" pageHeight="1169" math="0" shadow="0">
      <root>
        <mxCell id="0" />
        <mxCell id="1" parent="0" />
      </root>
    </mxGraphModel>
  </diagram>
</mxfile>
